<mxfile host="Electron" modified="2023-11-14T16:17:41.201Z" agent="Mozilla/5.0 (Windows NT 10.0; Win64; x64) AppleWebKit/537.36 (KHTML, like Gecko) draw.io/22.0.3 Chrome/114.0.5735.289 Electron/25.8.4 Safari/537.36" etag="9tH6mr8ejNFgqFx-6VcF" version="22.0.3" type="device">
  <diagram id="C5RBs43oDa-KdzZeNtuy" name="Page-1">
    <mxGraphModel dx="1233" dy="794" grid="1" gridSize="10" guides="1" tooltips="1" connect="1" arrows="1" fold="1" page="1" pageScale="1" pageWidth="827" pageHeight="1169" math="0" shadow="0">
      <root>
        <mxCell id="WIyWlLk6GJQsqaUBKTNV-0" />
        <mxCell id="WIyWlLk6GJQsqaUBKTNV-1" parent="WIyWlLk6GJQsqaUBKTNV-0" />
        <mxCell id="H0WgUMYi6zJlOxPKGB-7-2" style="edgeStyle=orthogonalEdgeStyle;rounded=0;orthogonalLoop=1;jettySize=auto;html=1;entryX=0.5;entryY=0;entryDx=0;entryDy=0;" parent="WIyWlLk6GJQsqaUBKTNV-1" source="H0WgUMYi6zJlOxPKGB-7-0" target="H0WgUMYi6zJlOxPKGB-7-21" edge="1">
          <mxGeometry relative="1" as="geometry">
            <mxPoint x="380" y="270" as="targetPoint" />
          </mxGeometry>
        </mxCell>
        <mxCell id="H0WgUMYi6zJlOxPKGB-7-0" value="start" style="ellipse;whiteSpace=wrap;html=1;" parent="WIyWlLk6GJQsqaUBKTNV-1" vertex="1">
          <mxGeometry x="330" y="110" width="120" height="80" as="geometry" />
        </mxCell>
        <mxCell id="H0WgUMYi6zJlOxPKGB-7-23" style="edgeStyle=orthogonalEdgeStyle;rounded=0;orthogonalLoop=1;jettySize=auto;html=1;entryX=0.5;entryY=0;entryDx=0;entryDy=0;" parent="WIyWlLk6GJQsqaUBKTNV-1" source="H0WgUMYi6zJlOxPKGB-7-21" target="H0WgUMYi6zJlOxPKGB-7-22" edge="1">
          <mxGeometry relative="1" as="geometry" />
        </mxCell>
        <mxCell id="H0WgUMYi6zJlOxPKGB-7-21" value="n,sum,count,num=ceil(log10(n)),&lt;br&gt;choice" style="shape=parallelogram;perimeter=parallelogramPerimeter;whiteSpace=wrap;html=1;fixedSize=1;" parent="WIyWlLk6GJQsqaUBKTNV-1" vertex="1">
          <mxGeometry x="320" y="270" width="210" height="100" as="geometry" />
        </mxCell>
        <mxCell id="H0WgUMYi6zJlOxPKGB-7-26" value="false" style="edgeStyle=orthogonalEdgeStyle;rounded=0;orthogonalLoop=1;jettySize=auto;html=1;entryX=0.5;entryY=0;entryDx=0;entryDy=0;" parent="WIyWlLk6GJQsqaUBKTNV-1" source="H0WgUMYi6zJlOxPKGB-7-22" target="H0WgUMYi6zJlOxPKGB-7-24" edge="1">
          <mxGeometry relative="1" as="geometry" />
        </mxCell>
        <mxCell id="H0WgUMYi6zJlOxPKGB-7-42" value="true" style="edgeStyle=orthogonalEdgeStyle;rounded=0;orthogonalLoop=1;jettySize=auto;html=1;entryX=0;entryY=0.5;entryDx=0;entryDy=0;" parent="WIyWlLk6GJQsqaUBKTNV-1" source="H0WgUMYi6zJlOxPKGB-7-22" target="H0WgUMYi6zJlOxPKGB-7-41" edge="1">
          <mxGeometry relative="1" as="geometry" />
        </mxCell>
        <mxCell id="H0WgUMYi6zJlOxPKGB-7-22" value="choice==1" style="rhombus;whiteSpace=wrap;html=1;" parent="WIyWlLk6GJQsqaUBKTNV-1" vertex="1">
          <mxGeometry x="350" y="490" width="150" height="100" as="geometry" />
        </mxCell>
        <mxCell id="H0WgUMYi6zJlOxPKGB-7-33" value="tfalse" style="edgeStyle=orthogonalEdgeStyle;rounded=0;orthogonalLoop=1;jettySize=auto;html=1;entryX=0.5;entryY=0;entryDx=0;entryDy=0;" parent="WIyWlLk6GJQsqaUBKTNV-1" source="H0WgUMYi6zJlOxPKGB-7-24" target="H0WgUMYi6zJlOxPKGB-7-28" edge="1">
          <mxGeometry relative="1" as="geometry" />
        </mxCell>
        <mxCell id="H0WgUMYi6zJlOxPKGB-7-24" value="choice==2" style="rhombus;whiteSpace=wrap;html=1;" parent="WIyWlLk6GJQsqaUBKTNV-1" vertex="1">
          <mxGeometry x="350" y="810" width="110" height="110" as="geometry" />
        </mxCell>
        <mxCell id="H0WgUMYi6zJlOxPKGB-7-27" value="false" style="edgeStyle=orthogonalEdgeStyle;rounded=0;orthogonalLoop=1;jettySize=auto;html=1;entryX=0.5;entryY=0;entryDx=0;entryDy=0;" parent="WIyWlLk6GJQsqaUBKTNV-1" source="H0WgUMYi6zJlOxPKGB-7-28" target="H0WgUMYi6zJlOxPKGB-7-29" edge="1">
          <mxGeometry relative="1" as="geometry" />
        </mxCell>
        <mxCell id="H0WgUMYi6zJlOxPKGB-7-104" style="edgeStyle=orthogonalEdgeStyle;rounded=0;orthogonalLoop=1;jettySize=auto;html=1;entryX=0;entryY=0.5;entryDx=0;entryDy=0;" parent="WIyWlLk6GJQsqaUBKTNV-1" source="H0WgUMYi6zJlOxPKGB-7-28" target="H0WgUMYi6zJlOxPKGB-7-91" edge="1">
          <mxGeometry relative="1" as="geometry" />
        </mxCell>
        <mxCell id="H0WgUMYi6zJlOxPKGB-7-28" value="choice==3" style="rhombus;whiteSpace=wrap;html=1;" parent="WIyWlLk6GJQsqaUBKTNV-1" vertex="1">
          <mxGeometry x="330" y="1240" width="150" height="100" as="geometry" />
        </mxCell>
        <mxCell id="H0WgUMYi6zJlOxPKGB-7-34" style="edgeStyle=orthogonalEdgeStyle;rounded=0;orthogonalLoop=1;jettySize=auto;html=1;entryX=0.5;entryY=0;entryDx=0;entryDy=0;" parent="WIyWlLk6GJQsqaUBKTNV-1" source="H0WgUMYi6zJlOxPKGB-7-29" target="H0WgUMYi6zJlOxPKGB-7-31" edge="1">
          <mxGeometry relative="1" as="geometry" />
        </mxCell>
        <mxCell id="Oh5g9ZbilyhvjwCsrJwf-10" style="edgeStyle=orthogonalEdgeStyle;rounded=0;orthogonalLoop=1;jettySize=auto;html=1;entryX=0;entryY=0.5;entryDx=0;entryDy=0;" edge="1" parent="WIyWlLk6GJQsqaUBKTNV-1" source="H0WgUMYi6zJlOxPKGB-7-29" target="Oh5g9ZbilyhvjwCsrJwf-1">
          <mxGeometry relative="1" as="geometry" />
        </mxCell>
        <mxCell id="H0WgUMYi6zJlOxPKGB-7-29" value="choice==4" style="rhombus;whiteSpace=wrap;html=1;" parent="WIyWlLk6GJQsqaUBKTNV-1" vertex="1">
          <mxGeometry x="350" y="1961" width="110" height="110" as="geometry" />
        </mxCell>
        <mxCell id="H0WgUMYi6zJlOxPKGB-7-30" value="false" style="edgeStyle=orthogonalEdgeStyle;rounded=0;orthogonalLoop=1;jettySize=auto;html=1;entryX=0.5;entryY=0;entryDx=0;entryDy=0;" parent="WIyWlLk6GJQsqaUBKTNV-1" source="H0WgUMYi6zJlOxPKGB-7-31" target="H0WgUMYi6zJlOxPKGB-7-32" edge="1">
          <mxGeometry relative="1" as="geometry" />
        </mxCell>
        <mxCell id="Oh5g9ZbilyhvjwCsrJwf-34" style="edgeStyle=orthogonalEdgeStyle;rounded=0;orthogonalLoop=1;jettySize=auto;html=1;entryX=0;entryY=0.5;entryDx=0;entryDy=0;" edge="1" parent="WIyWlLk6GJQsqaUBKTNV-1" source="H0WgUMYi6zJlOxPKGB-7-31" target="Oh5g9ZbilyhvjwCsrJwf-23">
          <mxGeometry relative="1" as="geometry" />
        </mxCell>
        <mxCell id="H0WgUMYi6zJlOxPKGB-7-31" value="choice==5" style="rhombus;whiteSpace=wrap;html=1;" parent="WIyWlLk6GJQsqaUBKTNV-1" vertex="1">
          <mxGeometry x="339" y="2660" width="150" height="96" as="geometry" />
        </mxCell>
        <mxCell id="H0WgUMYi6zJlOxPKGB-7-38" style="edgeStyle=orthogonalEdgeStyle;rounded=0;orthogonalLoop=1;jettySize=auto;html=1;entryX=0.5;entryY=0;entryDx=0;entryDy=0;" parent="WIyWlLk6GJQsqaUBKTNV-1" source="H0WgUMYi6zJlOxPKGB-7-32" target="H0WgUMYi6zJlOxPKGB-7-36" edge="1">
          <mxGeometry relative="1" as="geometry" />
        </mxCell>
        <mxCell id="Oh5g9ZbilyhvjwCsrJwf-58" style="edgeStyle=orthogonalEdgeStyle;rounded=0;orthogonalLoop=1;jettySize=auto;html=1;entryX=0;entryY=0.5;entryDx=0;entryDy=0;" edge="1" parent="WIyWlLk6GJQsqaUBKTNV-1" source="H0WgUMYi6zJlOxPKGB-7-32" target="Oh5g9ZbilyhvjwCsrJwf-45">
          <mxGeometry relative="1" as="geometry" />
        </mxCell>
        <mxCell id="H0WgUMYi6zJlOxPKGB-7-32" value="choice==6" style="rhombus;whiteSpace=wrap;html=1;" parent="WIyWlLk6GJQsqaUBKTNV-1" vertex="1">
          <mxGeometry x="379" y="3180" width="110" height="110" as="geometry" />
        </mxCell>
        <mxCell id="H0WgUMYi6zJlOxPKGB-7-35" value="false" style="edgeStyle=orthogonalEdgeStyle;rounded=0;orthogonalLoop=1;jettySize=auto;html=1;entryX=0.5;entryY=0;entryDx=0;entryDy=0;" parent="WIyWlLk6GJQsqaUBKTNV-1" source="H0WgUMYi6zJlOxPKGB-7-36" target="H0WgUMYi6zJlOxPKGB-7-37" edge="1">
          <mxGeometry relative="1" as="geometry" />
        </mxCell>
        <mxCell id="Oh5g9ZbilyhvjwCsrJwf-62" value="" style="edgeStyle=orthogonalEdgeStyle;rounded=0;orthogonalLoop=1;jettySize=auto;html=1;" edge="1" parent="WIyWlLk6GJQsqaUBKTNV-1" source="H0WgUMYi6zJlOxPKGB-7-36" target="Oh5g9ZbilyhvjwCsrJwf-61">
          <mxGeometry relative="1" as="geometry" />
        </mxCell>
        <mxCell id="H0WgUMYi6zJlOxPKGB-7-36" value="choice==7" style="rhombus;whiteSpace=wrap;html=1;" parent="WIyWlLk6GJQsqaUBKTNV-1" vertex="1">
          <mxGeometry x="330" y="3660" width="150" height="100" as="geometry" />
        </mxCell>
        <mxCell id="H0WgUMYi6zJlOxPKGB-7-40" style="edgeStyle=orthogonalEdgeStyle;rounded=0;orthogonalLoop=1;jettySize=auto;html=1;entryX=0.5;entryY=0;entryDx=0;entryDy=0;" parent="WIyWlLk6GJQsqaUBKTNV-1" source="H0WgUMYi6zJlOxPKGB-7-37" target="H0WgUMYi6zJlOxPKGB-7-39" edge="1">
          <mxGeometry relative="1" as="geometry" />
        </mxCell>
        <mxCell id="Oh5g9ZbilyhvjwCsrJwf-76" value="" style="edgeStyle=orthogonalEdgeStyle;rounded=0;orthogonalLoop=1;jettySize=auto;html=1;" edge="1" parent="WIyWlLk6GJQsqaUBKTNV-1" source="H0WgUMYi6zJlOxPKGB-7-37" target="Oh5g9ZbilyhvjwCsrJwf-75">
          <mxGeometry relative="1" as="geometry" />
        </mxCell>
        <mxCell id="H0WgUMYi6zJlOxPKGB-7-37" value="choice==8" style="rhombus;whiteSpace=wrap;html=1;" parent="WIyWlLk6GJQsqaUBKTNV-1" vertex="1">
          <mxGeometry x="339" y="4270" width="110" height="110" as="geometry" />
        </mxCell>
        <mxCell id="Oh5g9ZbilyhvjwCsrJwf-111" style="edgeStyle=orthogonalEdgeStyle;rounded=0;orthogonalLoop=1;jettySize=auto;html=1;entryX=0;entryY=0.5;entryDx=0;entryDy=0;" edge="1" parent="WIyWlLk6GJQsqaUBKTNV-1" source="H0WgUMYi6zJlOxPKGB-7-39" target="Oh5g9ZbilyhvjwCsrJwf-110">
          <mxGeometry relative="1" as="geometry" />
        </mxCell>
        <mxCell id="H0WgUMYi6zJlOxPKGB-7-39" value="choice==9" style="rhombus;whiteSpace=wrap;html=1;" parent="WIyWlLk6GJQsqaUBKTNV-1" vertex="1">
          <mxGeometry x="339" y="4554" width="115" height="122" as="geometry" />
        </mxCell>
        <mxCell id="H0WgUMYi6zJlOxPKGB-7-44" style="edgeStyle=orthogonalEdgeStyle;rounded=0;orthogonalLoop=1;jettySize=auto;html=1;entryX=0;entryY=0.5;entryDx=0;entryDy=0;" parent="WIyWlLk6GJQsqaUBKTNV-1" source="H0WgUMYi6zJlOxPKGB-7-41" target="H0WgUMYi6zJlOxPKGB-7-43" edge="1">
          <mxGeometry relative="1" as="geometry" />
        </mxCell>
        <mxCell id="H0WgUMYi6zJlOxPKGB-7-41" value="i=0" style="rounded=1;whiteSpace=wrap;html=1;" parent="WIyWlLk6GJQsqaUBKTNV-1" vertex="1">
          <mxGeometry x="600" y="510" width="120" height="60" as="geometry" />
        </mxCell>
        <mxCell id="H0WgUMYi6zJlOxPKGB-7-47" style="edgeStyle=orthogonalEdgeStyle;rounded=0;orthogonalLoop=1;jettySize=auto;html=1;entryX=0;entryY=0.5;entryDx=0;entryDy=0;" parent="WIyWlLk6GJQsqaUBKTNV-1" source="H0WgUMYi6zJlOxPKGB-7-43" target="H0WgUMYi6zJlOxPKGB-7-46" edge="1">
          <mxGeometry relative="1" as="geometry" />
        </mxCell>
        <mxCell id="H0WgUMYi6zJlOxPKGB-7-49" value="true" style="edgeLabel;html=1;align=center;verticalAlign=middle;resizable=0;points=[];" parent="H0WgUMYi6zJlOxPKGB-7-47" vertex="1" connectable="0">
          <mxGeometry x="-0.0407" y="-5" relative="1" as="geometry">
            <mxPoint as="offset" />
          </mxGeometry>
        </mxCell>
        <mxCell id="H0WgUMYi6zJlOxPKGB-7-52" value="false" style="edgeStyle=orthogonalEdgeStyle;rounded=0;orthogonalLoop=1;jettySize=auto;html=1;" parent="WIyWlLk6GJQsqaUBKTNV-1" source="H0WgUMYi6zJlOxPKGB-7-43" target="H0WgUMYi6zJlOxPKGB-7-51" edge="1">
          <mxGeometry relative="1" as="geometry" />
        </mxCell>
        <mxCell id="H0WgUMYi6zJlOxPKGB-7-43" value="i&amp;lt;n" style="rhombus;whiteSpace=wrap;html=1;" parent="WIyWlLk6GJQsqaUBKTNV-1" vertex="1">
          <mxGeometry x="827" y="495" width="120" height="90" as="geometry" />
        </mxCell>
        <mxCell id="H0WgUMYi6zJlOxPKGB-7-48" style="edgeStyle=orthogonalEdgeStyle;rounded=0;orthogonalLoop=1;jettySize=auto;html=1;" parent="WIyWlLk6GJQsqaUBKTNV-1" source="H0WgUMYi6zJlOxPKGB-7-46" edge="1">
          <mxGeometry relative="1" as="geometry">
            <mxPoint x="770" y="540" as="targetPoint" />
            <Array as="points">
              <mxPoint x="1130" y="420" />
            </Array>
          </mxGeometry>
        </mxCell>
        <mxCell id="H0WgUMYi6zJlOxPKGB-7-46" value="printf i&lt;br&gt;sum+=i&lt;br&gt;i++" style="rounded=1;whiteSpace=wrap;html=1;" parent="WIyWlLk6GJQsqaUBKTNV-1" vertex="1">
          <mxGeometry x="1070" y="510" width="120" height="60" as="geometry" />
        </mxCell>
        <mxCell id="H0WgUMYi6zJlOxPKGB-7-53" style="edgeStyle=orthogonalEdgeStyle;rounded=0;orthogonalLoop=1;jettySize=auto;html=1;" parent="WIyWlLk6GJQsqaUBKTNV-1" source="H0WgUMYi6zJlOxPKGB-7-51" edge="1">
          <mxGeometry relative="1" as="geometry">
            <mxPoint x="430" y="240" as="targetPoint" />
            <Array as="points">
              <mxPoint x="1411" y="370" />
            </Array>
          </mxGeometry>
        </mxCell>
        <mxCell id="H0WgUMYi6zJlOxPKGB-7-51" value="print sum" style="whiteSpace=wrap;html=1;" parent="WIyWlLk6GJQsqaUBKTNV-1" vertex="1">
          <mxGeometry x="827" y="340" width="120" height="60" as="geometry" />
        </mxCell>
        <mxCell id="H0WgUMYi6zJlOxPKGB-7-54" value="true" style="edgeStyle=orthogonalEdgeStyle;rounded=0;orthogonalLoop=1;jettySize=auto;html=1;entryX=0;entryY=0.5;entryDx=0;entryDy=0;exitX=1;exitY=0.5;exitDx=0;exitDy=0;" parent="WIyWlLk6GJQsqaUBKTNV-1" source="H0WgUMYi6zJlOxPKGB-7-24" target="H0WgUMYi6zJlOxPKGB-7-56" edge="1">
          <mxGeometry relative="1" as="geometry">
            <mxPoint x="460" y="860" as="sourcePoint" />
          </mxGeometry>
        </mxCell>
        <mxCell id="H0WgUMYi6zJlOxPKGB-7-55" style="edgeStyle=orthogonalEdgeStyle;rounded=0;orthogonalLoop=1;jettySize=auto;html=1;entryX=0;entryY=0.5;entryDx=0;entryDy=0;" parent="WIyWlLk6GJQsqaUBKTNV-1" source="H0WgUMYi6zJlOxPKGB-7-56" target="H0WgUMYi6zJlOxPKGB-7-60" edge="1">
          <mxGeometry relative="1" as="geometry" />
        </mxCell>
        <mxCell id="H0WgUMYi6zJlOxPKGB-7-56" value="i=0&lt;br&gt;count=0" style="rounded=1;whiteSpace=wrap;html=1;" parent="WIyWlLk6GJQsqaUBKTNV-1" vertex="1">
          <mxGeometry x="580" y="830" width="120" height="60" as="geometry" />
        </mxCell>
        <mxCell id="H0WgUMYi6zJlOxPKGB-7-57" style="edgeStyle=orthogonalEdgeStyle;rounded=0;orthogonalLoop=1;jettySize=auto;html=1;entryX=0;entryY=0.5;entryDx=0;entryDy=0;" parent="WIyWlLk6GJQsqaUBKTNV-1" source="H0WgUMYi6zJlOxPKGB-7-60" target="H0WgUMYi6zJlOxPKGB-7-64" edge="1">
          <mxGeometry relative="1" as="geometry">
            <mxPoint x="1050" y="859.9999999999998" as="targetPoint" />
          </mxGeometry>
        </mxCell>
        <mxCell id="H0WgUMYi6zJlOxPKGB-7-58" value="true" style="edgeLabel;html=1;align=center;verticalAlign=middle;resizable=0;points=[];" parent="H0WgUMYi6zJlOxPKGB-7-57" vertex="1" connectable="0">
          <mxGeometry x="-0.0407" y="-5" relative="1" as="geometry">
            <mxPoint as="offset" />
          </mxGeometry>
        </mxCell>
        <mxCell id="H0WgUMYi6zJlOxPKGB-7-73" style="edgeStyle=orthogonalEdgeStyle;rounded=0;orthogonalLoop=1;jettySize=auto;html=1;" parent="WIyWlLk6GJQsqaUBKTNV-1" source="H0WgUMYi6zJlOxPKGB-7-60" target="H0WgUMYi6zJlOxPKGB-7-74" edge="1">
          <mxGeometry relative="1" as="geometry">
            <mxPoint x="867" y="989.9999999999998" as="targetPoint" />
          </mxGeometry>
        </mxCell>
        <mxCell id="H0WgUMYi6zJlOxPKGB-7-60" value="i&amp;lt;n" style="rhombus;whiteSpace=wrap;html=1;" parent="WIyWlLk6GJQsqaUBKTNV-1" vertex="1">
          <mxGeometry x="807" y="814" width="120" height="90" as="geometry" />
        </mxCell>
        <mxCell id="H0WgUMYi6zJlOxPKGB-7-66" value="" style="edgeStyle=orthogonalEdgeStyle;rounded=0;orthogonalLoop=1;jettySize=auto;html=1;" parent="WIyWlLk6GJQsqaUBKTNV-1" source="H0WgUMYi6zJlOxPKGB-7-64" target="H0WgUMYi6zJlOxPKGB-7-65" edge="1">
          <mxGeometry relative="1" as="geometry" />
        </mxCell>
        <mxCell id="H0WgUMYi6zJlOxPKGB-7-69" value="true" style="edgeLabel;html=1;align=center;verticalAlign=middle;resizable=0;points=[];" parent="H0WgUMYi6zJlOxPKGB-7-66" vertex="1" connectable="0">
          <mxGeometry x="-0.1206" y="-4" relative="1" as="geometry">
            <mxPoint as="offset" />
          </mxGeometry>
        </mxCell>
        <mxCell id="H0WgUMYi6zJlOxPKGB-7-68" style="edgeStyle=orthogonalEdgeStyle;rounded=0;orthogonalLoop=1;jettySize=auto;html=1;" parent="WIyWlLk6GJQsqaUBKTNV-1" source="H0WgUMYi6zJlOxPKGB-7-64" edge="1">
          <mxGeometry relative="1" as="geometry">
            <mxPoint x="1090" y="700" as="targetPoint" />
          </mxGeometry>
        </mxCell>
        <mxCell id="H0WgUMYi6zJlOxPKGB-7-72" value="false" style="edgeLabel;html=1;align=center;verticalAlign=middle;resizable=0;points=[];" parent="H0WgUMYi6zJlOxPKGB-7-68" vertex="1" connectable="0">
          <mxGeometry x="-0.1106" y="1" relative="1" as="geometry">
            <mxPoint y="1" as="offset" />
          </mxGeometry>
        </mxCell>
        <mxCell id="H0WgUMYi6zJlOxPKGB-7-64" value="i%3==0" style="rhombus;whiteSpace=wrap;html=1;" parent="WIyWlLk6GJQsqaUBKTNV-1" vertex="1">
          <mxGeometry x="1030" y="815" width="120" height="90" as="geometry" />
        </mxCell>
        <mxCell id="H0WgUMYi6zJlOxPKGB-7-67" style="edgeStyle=orthogonalEdgeStyle;rounded=0;orthogonalLoop=1;jettySize=auto;html=1;" parent="WIyWlLk6GJQsqaUBKTNV-1" source="H0WgUMYi6zJlOxPKGB-7-65" edge="1">
          <mxGeometry relative="1" as="geometry">
            <mxPoint x="750" y="860" as="targetPoint" />
            <Array as="points">
              <mxPoint x="1290" y="700" />
              <mxPoint x="750" y="700" />
            </Array>
          </mxGeometry>
        </mxCell>
        <mxCell id="H0WgUMYi6zJlOxPKGB-7-65" value="printf i&lt;br&gt;count++" style="whiteSpace=wrap;html=1;" parent="WIyWlLk6GJQsqaUBKTNV-1" vertex="1">
          <mxGeometry x="1230" y="830" width="120" height="60" as="geometry" />
        </mxCell>
        <mxCell id="H0WgUMYi6zJlOxPKGB-7-75" style="edgeStyle=orthogonalEdgeStyle;rounded=0;orthogonalLoop=1;jettySize=auto;html=1;" parent="WIyWlLk6GJQsqaUBKTNV-1" source="H0WgUMYi6zJlOxPKGB-7-74" edge="1">
          <mxGeometry relative="1" as="geometry">
            <mxPoint x="1410" y="257.6470588235294" as="targetPoint" />
          </mxGeometry>
        </mxCell>
        <mxCell id="H0WgUMYi6zJlOxPKGB-7-74" value="printf count" style="rounded=1;whiteSpace=wrap;html=1;" parent="WIyWlLk6GJQsqaUBKTNV-1" vertex="1">
          <mxGeometry x="807" y="969.9999999999998" width="120" height="60" as="geometry" />
        </mxCell>
        <mxCell id="H0WgUMYi6zJlOxPKGB-7-90" style="edgeStyle=orthogonalEdgeStyle;rounded=0;orthogonalLoop=1;jettySize=auto;html=1;entryX=0;entryY=0.5;entryDx=0;entryDy=0;" parent="WIyWlLk6GJQsqaUBKTNV-1" source="H0WgUMYi6zJlOxPKGB-7-91" target="H0WgUMYi6zJlOxPKGB-7-95" edge="1">
          <mxGeometry relative="1" as="geometry" />
        </mxCell>
        <mxCell id="H0WgUMYi6zJlOxPKGB-7-91" value="i=0&lt;br&gt;count=0" style="rounded=1;whiteSpace=wrap;html=1;" parent="WIyWlLk6GJQsqaUBKTNV-1" vertex="1">
          <mxGeometry x="600" y="1260" width="120" height="60" as="geometry" />
        </mxCell>
        <mxCell id="H0WgUMYi6zJlOxPKGB-7-92" style="edgeStyle=orthogonalEdgeStyle;rounded=0;orthogonalLoop=1;jettySize=auto;html=1;entryX=0;entryY=0.5;entryDx=0;entryDy=0;" parent="WIyWlLk6GJQsqaUBKTNV-1" source="H0WgUMYi6zJlOxPKGB-7-95" target="H0WgUMYi6zJlOxPKGB-7-100" edge="1">
          <mxGeometry relative="1" as="geometry">
            <mxPoint x="1070" y="1289.9999999999998" as="targetPoint" />
          </mxGeometry>
        </mxCell>
        <mxCell id="H0WgUMYi6zJlOxPKGB-7-93" value="true" style="edgeLabel;html=1;align=center;verticalAlign=middle;resizable=0;points=[];" parent="H0WgUMYi6zJlOxPKGB-7-92" vertex="1" connectable="0">
          <mxGeometry x="-0.0407" y="-5" relative="1" as="geometry">
            <mxPoint as="offset" />
          </mxGeometry>
        </mxCell>
        <mxCell id="H0WgUMYi6zJlOxPKGB-7-94" style="edgeStyle=orthogonalEdgeStyle;rounded=0;orthogonalLoop=1;jettySize=auto;html=1;" parent="WIyWlLk6GJQsqaUBKTNV-1" source="H0WgUMYi6zJlOxPKGB-7-95" target="H0WgUMYi6zJlOxPKGB-7-105" edge="1">
          <mxGeometry relative="1" as="geometry">
            <mxPoint x="887" y="1400" as="targetPoint" />
          </mxGeometry>
        </mxCell>
        <mxCell id="H0WgUMYi6zJlOxPKGB-7-95" value="i&amp;lt;sqrt(n)" style="rhombus;whiteSpace=wrap;html=1;" parent="WIyWlLk6GJQsqaUBKTNV-1" vertex="1">
          <mxGeometry x="827" y="1244" width="120" height="90" as="geometry" />
        </mxCell>
        <mxCell id="H0WgUMYi6zJlOxPKGB-7-96" value="" style="edgeStyle=orthogonalEdgeStyle;rounded=0;orthogonalLoop=1;jettySize=auto;html=1;" parent="WIyWlLk6GJQsqaUBKTNV-1" source="H0WgUMYi6zJlOxPKGB-7-100" target="H0WgUMYi6zJlOxPKGB-7-102" edge="1">
          <mxGeometry relative="1" as="geometry" />
        </mxCell>
        <mxCell id="H0WgUMYi6zJlOxPKGB-7-97" value="true" style="edgeLabel;html=1;align=center;verticalAlign=middle;resizable=0;points=[];" parent="H0WgUMYi6zJlOxPKGB-7-96" vertex="1" connectable="0">
          <mxGeometry x="-0.1206" y="-4" relative="1" as="geometry">
            <mxPoint as="offset" />
          </mxGeometry>
        </mxCell>
        <mxCell id="H0WgUMYi6zJlOxPKGB-7-98" style="edgeStyle=orthogonalEdgeStyle;rounded=0;orthogonalLoop=1;jettySize=auto;html=1;" parent="WIyWlLk6GJQsqaUBKTNV-1" source="H0WgUMYi6zJlOxPKGB-7-100" edge="1">
          <mxGeometry relative="1" as="geometry">
            <mxPoint x="1110" y="1130" as="targetPoint" />
          </mxGeometry>
        </mxCell>
        <mxCell id="H0WgUMYi6zJlOxPKGB-7-99" value="false" style="edgeLabel;html=1;align=center;verticalAlign=middle;resizable=0;points=[];" parent="H0WgUMYi6zJlOxPKGB-7-98" vertex="1" connectable="0">
          <mxGeometry x="-0.1106" y="1" relative="1" as="geometry">
            <mxPoint y="1" as="offset" />
          </mxGeometry>
        </mxCell>
        <mxCell id="H0WgUMYi6zJlOxPKGB-7-100" value="n%i==0" style="rhombus;whiteSpace=wrap;html=1;" parent="WIyWlLk6GJQsqaUBKTNV-1" vertex="1">
          <mxGeometry x="1050" y="1245" width="120" height="90" as="geometry" />
        </mxCell>
        <mxCell id="H0WgUMYi6zJlOxPKGB-7-101" style="edgeStyle=orthogonalEdgeStyle;rounded=0;orthogonalLoop=1;jettySize=auto;html=1;" parent="WIyWlLk6GJQsqaUBKTNV-1" source="H0WgUMYi6zJlOxPKGB-7-102" edge="1">
          <mxGeometry relative="1" as="geometry">
            <mxPoint x="770" y="1290" as="targetPoint" />
            <Array as="points">
              <mxPoint x="1310" y="1130" />
              <mxPoint x="770" y="1130" />
            </Array>
          </mxGeometry>
        </mxCell>
        <mxCell id="H0WgUMYi6zJlOxPKGB-7-102" value="&lt;br&gt;count++" style="whiteSpace=wrap;html=1;" parent="WIyWlLk6GJQsqaUBKTNV-1" vertex="1">
          <mxGeometry x="1250" y="1260" width="120" height="60" as="geometry" />
        </mxCell>
        <mxCell id="H0WgUMYi6zJlOxPKGB-7-107" value="" style="edgeStyle=orthogonalEdgeStyle;rounded=0;orthogonalLoop=1;jettySize=auto;html=1;" parent="WIyWlLk6GJQsqaUBKTNV-1" source="H0WgUMYi6zJlOxPKGB-7-105" target="H0WgUMYi6zJlOxPKGB-7-106" edge="1">
          <mxGeometry relative="1" as="geometry" />
        </mxCell>
        <mxCell id="H0WgUMYi6zJlOxPKGB-7-110" value="true" style="edgeLabel;html=1;align=center;verticalAlign=middle;resizable=0;points=[];" parent="H0WgUMYi6zJlOxPKGB-7-107" vertex="1" connectable="0">
          <mxGeometry x="-0.198" y="3" relative="1" as="geometry">
            <mxPoint x="1" as="offset" />
          </mxGeometry>
        </mxCell>
        <mxCell id="H0WgUMYi6zJlOxPKGB-7-109" value="" style="edgeStyle=orthogonalEdgeStyle;rounded=0;orthogonalLoop=1;jettySize=auto;html=1;" parent="WIyWlLk6GJQsqaUBKTNV-1" source="H0WgUMYi6zJlOxPKGB-7-105" target="H0WgUMYi6zJlOxPKGB-7-108" edge="1">
          <mxGeometry relative="1" as="geometry" />
        </mxCell>
        <mxCell id="H0WgUMYi6zJlOxPKGB-7-111" value="false" style="edgeLabel;html=1;align=center;verticalAlign=middle;resizable=0;points=[];" parent="H0WgUMYi6zJlOxPKGB-7-109" vertex="1" connectable="0">
          <mxGeometry x="-0.3176" y="4" relative="1" as="geometry">
            <mxPoint as="offset" />
          </mxGeometry>
        </mxCell>
        <mxCell id="H0WgUMYi6zJlOxPKGB-7-105" value="count!=0" style="rhombus;whiteSpace=wrap;html=1;" parent="WIyWlLk6GJQsqaUBKTNV-1" vertex="1">
          <mxGeometry x="847" y="1400" width="80" height="80" as="geometry" />
        </mxCell>
        <mxCell id="H0WgUMYi6zJlOxPKGB-7-112" style="edgeStyle=orthogonalEdgeStyle;rounded=0;orthogonalLoop=1;jettySize=auto;html=1;" parent="WIyWlLk6GJQsqaUBKTNV-1" source="H0WgUMYi6zJlOxPKGB-7-106" edge="1">
          <mxGeometry relative="1" as="geometry">
            <mxPoint x="1410" y="257.6470588235294" as="targetPoint" />
          </mxGeometry>
        </mxCell>
        <mxCell id="H0WgUMYi6zJlOxPKGB-7-106" value="ko là số nguyên tố" style="whiteSpace=wrap;html=1;" parent="WIyWlLk6GJQsqaUBKTNV-1" vertex="1">
          <mxGeometry x="987" y="1410" width="120" height="60" as="geometry" />
        </mxCell>
        <mxCell id="H0WgUMYi6zJlOxPKGB-7-113" style="edgeStyle=orthogonalEdgeStyle;rounded=0;orthogonalLoop=1;jettySize=auto;html=1;" parent="WIyWlLk6GJQsqaUBKTNV-1" source="H0WgUMYi6zJlOxPKGB-7-108" edge="1">
          <mxGeometry relative="1" as="geometry">
            <mxPoint x="1410" y="270" as="targetPoint" />
          </mxGeometry>
        </mxCell>
        <mxCell id="H0WgUMYi6zJlOxPKGB-7-108" value="đó là số nguyên tố" style="whiteSpace=wrap;html=1;" parent="WIyWlLk6GJQsqaUBKTNV-1" vertex="1">
          <mxGeometry x="827" y="1570" width="120" height="60" as="geometry" />
        </mxCell>
        <mxCell id="Oh5g9ZbilyhvjwCsrJwf-0" style="edgeStyle=orthogonalEdgeStyle;rounded=0;orthogonalLoop=1;jettySize=auto;html=1;entryX=0;entryY=0.5;entryDx=0;entryDy=0;" edge="1" parent="WIyWlLk6GJQsqaUBKTNV-1" source="Oh5g9ZbilyhvjwCsrJwf-1" target="Oh5g9ZbilyhvjwCsrJwf-4">
          <mxGeometry relative="1" as="geometry" />
        </mxCell>
        <mxCell id="Oh5g9ZbilyhvjwCsrJwf-1" value="i=0&lt;br&gt;sum=0" style="rounded=1;whiteSpace=wrap;html=1;" vertex="1" parent="WIyWlLk6GJQsqaUBKTNV-1">
          <mxGeometry x="595" y="1976" width="120" height="65.23" as="geometry" />
        </mxCell>
        <mxCell id="Oh5g9ZbilyhvjwCsrJwf-2" style="edgeStyle=orthogonalEdgeStyle;rounded=0;orthogonalLoop=1;jettySize=auto;html=1;entryX=0;entryY=0.5;entryDx=0;entryDy=0;" edge="1" parent="WIyWlLk6GJQsqaUBKTNV-1" source="Oh5g9ZbilyhvjwCsrJwf-4" target="Oh5g9ZbilyhvjwCsrJwf-8">
          <mxGeometry relative="1" as="geometry">
            <mxPoint x="1065" y="2005.9999999999998" as="targetPoint" />
          </mxGeometry>
        </mxCell>
        <mxCell id="Oh5g9ZbilyhvjwCsrJwf-3" value="true" style="edgeLabel;html=1;align=center;verticalAlign=middle;resizable=0;points=[];" vertex="1" connectable="0" parent="Oh5g9ZbilyhvjwCsrJwf-2">
          <mxGeometry x="-0.0407" y="-5" relative="1" as="geometry">
            <mxPoint as="offset" />
          </mxGeometry>
        </mxCell>
        <mxCell id="Oh5g9ZbilyhvjwCsrJwf-14" value="" style="edgeStyle=orthogonalEdgeStyle;rounded=0;orthogonalLoop=1;jettySize=auto;html=1;" edge="1" parent="WIyWlLk6GJQsqaUBKTNV-1" source="Oh5g9ZbilyhvjwCsrJwf-4" target="Oh5g9ZbilyhvjwCsrJwf-13">
          <mxGeometry relative="1" as="geometry" />
        </mxCell>
        <mxCell id="Oh5g9ZbilyhvjwCsrJwf-17" value="false" style="edgeLabel;html=1;align=center;verticalAlign=middle;resizable=0;points=[];" vertex="1" connectable="0" parent="Oh5g9ZbilyhvjwCsrJwf-14">
          <mxGeometry x="-0.0323" y="-2" relative="1" as="geometry">
            <mxPoint x="2" y="1" as="offset" />
          </mxGeometry>
        </mxCell>
        <mxCell id="Oh5g9ZbilyhvjwCsrJwf-4" value="i&amp;lt;n" style="rhombus;whiteSpace=wrap;html=1;" vertex="1" parent="WIyWlLk6GJQsqaUBKTNV-1">
          <mxGeometry x="822" y="1960" width="120" height="90" as="geometry" />
        </mxCell>
        <mxCell id="Oh5g9ZbilyhvjwCsrJwf-5" value="" style="edgeStyle=orthogonalEdgeStyle;rounded=0;orthogonalLoop=1;jettySize=auto;html=1;" edge="1" parent="WIyWlLk6GJQsqaUBKTNV-1" source="Oh5g9ZbilyhvjwCsrJwf-8" target="Oh5g9ZbilyhvjwCsrJwf-9">
          <mxGeometry relative="1" as="geometry" />
        </mxCell>
        <mxCell id="Oh5g9ZbilyhvjwCsrJwf-6" value="true" style="edgeLabel;html=1;align=center;verticalAlign=middle;resizable=0;points=[];" vertex="1" connectable="0" parent="Oh5g9ZbilyhvjwCsrJwf-5">
          <mxGeometry x="-0.1206" y="-4" relative="1" as="geometry">
            <mxPoint as="offset" />
          </mxGeometry>
        </mxCell>
        <mxCell id="Oh5g9ZbilyhvjwCsrJwf-20" style="edgeStyle=orthogonalEdgeStyle;rounded=0;orthogonalLoop=1;jettySize=auto;html=1;" edge="1" parent="WIyWlLk6GJQsqaUBKTNV-1" source="Oh5g9ZbilyhvjwCsrJwf-8">
          <mxGeometry relative="1" as="geometry">
            <mxPoint x="1105" y="1750" as="targetPoint" />
          </mxGeometry>
        </mxCell>
        <mxCell id="Oh5g9ZbilyhvjwCsrJwf-8" value="n%i==0" style="rhombus;whiteSpace=wrap;html=1;" vertex="1" parent="WIyWlLk6GJQsqaUBKTNV-1">
          <mxGeometry x="1045" y="1961" width="120" height="90" as="geometry" />
        </mxCell>
        <mxCell id="Oh5g9ZbilyhvjwCsrJwf-19" style="edgeStyle=orthogonalEdgeStyle;rounded=0;orthogonalLoop=1;jettySize=auto;html=1;" edge="1" parent="WIyWlLk6GJQsqaUBKTNV-1" source="Oh5g9ZbilyhvjwCsrJwf-9">
          <mxGeometry relative="1" as="geometry">
            <mxPoint x="780" y="2006" as="targetPoint" />
            <Array as="points">
              <mxPoint x="1330" y="1750" />
              <mxPoint x="780" y="1750" />
            </Array>
          </mxGeometry>
        </mxCell>
        <mxCell id="Oh5g9ZbilyhvjwCsrJwf-9" value="sum+=i&lt;br&gt;i++" style="whiteSpace=wrap;html=1;" vertex="1" parent="WIyWlLk6GJQsqaUBKTNV-1">
          <mxGeometry x="1245" y="1976" width="120" height="60" as="geometry" />
        </mxCell>
        <mxCell id="Oh5g9ZbilyhvjwCsrJwf-16" value="" style="edgeStyle=orthogonalEdgeStyle;rounded=0;orthogonalLoop=1;jettySize=auto;html=1;" edge="1" parent="WIyWlLk6GJQsqaUBKTNV-1" source="Oh5g9ZbilyhvjwCsrJwf-13" target="Oh5g9ZbilyhvjwCsrJwf-15">
          <mxGeometry relative="1" as="geometry" />
        </mxCell>
        <mxCell id="Oh5g9ZbilyhvjwCsrJwf-18" value="true" style="edgeLabel;html=1;align=center;verticalAlign=middle;resizable=0;points=[];" vertex="1" connectable="0" parent="Oh5g9ZbilyhvjwCsrJwf-16">
          <mxGeometry x="0.0278" y="-4" relative="1" as="geometry">
            <mxPoint y="1" as="offset" />
          </mxGeometry>
        </mxCell>
        <mxCell id="Oh5g9ZbilyhvjwCsrJwf-13" value="sum==n" style="rhombus;whiteSpace=wrap;html=1;" vertex="1" parent="WIyWlLk6GJQsqaUBKTNV-1">
          <mxGeometry x="822" y="2140" width="120" height="90" as="geometry" />
        </mxCell>
        <mxCell id="Oh5g9ZbilyhvjwCsrJwf-21" style="edgeStyle=orthogonalEdgeStyle;rounded=0;orthogonalLoop=1;jettySize=auto;html=1;" edge="1" parent="WIyWlLk6GJQsqaUBKTNV-1" source="Oh5g9ZbilyhvjwCsrJwf-15">
          <mxGeometry relative="1" as="geometry">
            <mxPoint x="1410" y="1290" as="targetPoint" />
          </mxGeometry>
        </mxCell>
        <mxCell id="Oh5g9ZbilyhvjwCsrJwf-15" value="n la so hoan hao" style="whiteSpace=wrap;html=1;" vertex="1" parent="WIyWlLk6GJQsqaUBKTNV-1">
          <mxGeometry x="830" y="2320" width="120" height="60" as="geometry" />
        </mxCell>
        <mxCell id="Oh5g9ZbilyhvjwCsrJwf-22" style="edgeStyle=orthogonalEdgeStyle;rounded=0;orthogonalLoop=1;jettySize=auto;html=1;entryX=0;entryY=0.5;entryDx=0;entryDy=0;" edge="1" parent="WIyWlLk6GJQsqaUBKTNV-1" source="Oh5g9ZbilyhvjwCsrJwf-23" target="Oh5g9ZbilyhvjwCsrJwf-26">
          <mxGeometry relative="1" as="geometry" />
        </mxCell>
        <mxCell id="Oh5g9ZbilyhvjwCsrJwf-23" value="i=0&lt;br&gt;sum=0" style="rounded=1;whiteSpace=wrap;html=1;" vertex="1" parent="WIyWlLk6GJQsqaUBKTNV-1">
          <mxGeometry x="580" y="2666" width="120" height="65.23" as="geometry" />
        </mxCell>
        <mxCell id="Oh5g9ZbilyhvjwCsrJwf-24" style="edgeStyle=orthogonalEdgeStyle;rounded=0;orthogonalLoop=1;jettySize=auto;html=1;entryX=0;entryY=0.5;entryDx=0;entryDy=0;" edge="1" parent="WIyWlLk6GJQsqaUBKTNV-1" source="Oh5g9ZbilyhvjwCsrJwf-26" target="Oh5g9ZbilyhvjwCsrJwf-30">
          <mxGeometry relative="1" as="geometry">
            <mxPoint x="1050" y="2696" as="targetPoint" />
          </mxGeometry>
        </mxCell>
        <mxCell id="Oh5g9ZbilyhvjwCsrJwf-25" value="true" style="edgeLabel;html=1;align=center;verticalAlign=middle;resizable=0;points=[];" vertex="1" connectable="0" parent="Oh5g9ZbilyhvjwCsrJwf-24">
          <mxGeometry x="-0.0407" y="-5" relative="1" as="geometry">
            <mxPoint as="offset" />
          </mxGeometry>
        </mxCell>
        <mxCell id="Oh5g9ZbilyhvjwCsrJwf-39" value="" style="edgeStyle=orthogonalEdgeStyle;rounded=0;orthogonalLoop=1;jettySize=auto;html=1;" edge="1" parent="WIyWlLk6GJQsqaUBKTNV-1" source="Oh5g9ZbilyhvjwCsrJwf-26" target="Oh5g9ZbilyhvjwCsrJwf-38">
          <mxGeometry relative="1" as="geometry" />
        </mxCell>
        <mxCell id="Oh5g9ZbilyhvjwCsrJwf-40" value="false" style="edgeLabel;html=1;align=center;verticalAlign=middle;resizable=0;points=[];" vertex="1" connectable="0" parent="Oh5g9ZbilyhvjwCsrJwf-39">
          <mxGeometry x="-0.0265" y="3" relative="1" as="geometry">
            <mxPoint as="offset" />
          </mxGeometry>
        </mxCell>
        <mxCell id="Oh5g9ZbilyhvjwCsrJwf-26" value="i&amp;lt;n" style="rhombus;whiteSpace=wrap;html=1;" vertex="1" parent="WIyWlLk6GJQsqaUBKTNV-1">
          <mxGeometry x="807" y="2650" width="120" height="90" as="geometry" />
        </mxCell>
        <mxCell id="Oh5g9ZbilyhvjwCsrJwf-27" value="" style="edgeStyle=orthogonalEdgeStyle;rounded=0;orthogonalLoop=1;jettySize=auto;html=1;" edge="1" parent="WIyWlLk6GJQsqaUBKTNV-1" source="Oh5g9ZbilyhvjwCsrJwf-30" target="Oh5g9ZbilyhvjwCsrJwf-32">
          <mxGeometry relative="1" as="geometry" />
        </mxCell>
        <mxCell id="Oh5g9ZbilyhvjwCsrJwf-28" value="true" style="edgeLabel;html=1;align=center;verticalAlign=middle;resizable=0;points=[];" vertex="1" connectable="0" parent="Oh5g9ZbilyhvjwCsrJwf-27">
          <mxGeometry x="-0.1206" y="-4" relative="1" as="geometry">
            <mxPoint as="offset" />
          </mxGeometry>
        </mxCell>
        <mxCell id="Oh5g9ZbilyhvjwCsrJwf-29" style="edgeStyle=orthogonalEdgeStyle;rounded=0;orthogonalLoop=1;jettySize=auto;html=1;" edge="1" parent="WIyWlLk6GJQsqaUBKTNV-1" source="Oh5g9ZbilyhvjwCsrJwf-30">
          <mxGeometry relative="1" as="geometry">
            <mxPoint x="1090" y="2440" as="targetPoint" />
          </mxGeometry>
        </mxCell>
        <mxCell id="Oh5g9ZbilyhvjwCsrJwf-30" value="n%i==0" style="rhombus;whiteSpace=wrap;html=1;" vertex="1" parent="WIyWlLk6GJQsqaUBKTNV-1">
          <mxGeometry x="1030" y="2651" width="120" height="90" as="geometry" />
        </mxCell>
        <mxCell id="Oh5g9ZbilyhvjwCsrJwf-31" style="edgeStyle=orthogonalEdgeStyle;rounded=0;orthogonalLoop=1;jettySize=auto;html=1;" edge="1" parent="WIyWlLk6GJQsqaUBKTNV-1" source="Oh5g9ZbilyhvjwCsrJwf-32">
          <mxGeometry relative="1" as="geometry">
            <mxPoint x="765" y="2696" as="targetPoint" />
            <Array as="points">
              <mxPoint x="1315" y="2440" />
              <mxPoint x="765" y="2440" />
            </Array>
          </mxGeometry>
        </mxCell>
        <mxCell id="Oh5g9ZbilyhvjwCsrJwf-32" value="sum+=i&lt;br&gt;i++" style="whiteSpace=wrap;html=1;" vertex="1" parent="WIyWlLk6GJQsqaUBKTNV-1">
          <mxGeometry x="1230" y="2666" width="120" height="60" as="geometry" />
        </mxCell>
        <mxCell id="Oh5g9ZbilyhvjwCsrJwf-43" style="edgeStyle=orthogonalEdgeStyle;rounded=0;orthogonalLoop=1;jettySize=auto;html=1;" edge="1" parent="WIyWlLk6GJQsqaUBKTNV-1" source="Oh5g9ZbilyhvjwCsrJwf-38">
          <mxGeometry relative="1" as="geometry">
            <mxPoint x="1410" y="1750" as="targetPoint" />
          </mxGeometry>
        </mxCell>
        <mxCell id="Oh5g9ZbilyhvjwCsrJwf-38" value="tong cac uoc cua n la&lt;br&gt;sum" style="whiteSpace=wrap;html=1;" vertex="1" parent="WIyWlLk6GJQsqaUBKTNV-1">
          <mxGeometry x="927" y="2863" width="120" height="60" as="geometry" />
        </mxCell>
        <mxCell id="Oh5g9ZbilyhvjwCsrJwf-44" style="edgeStyle=orthogonalEdgeStyle;rounded=0;orthogonalLoop=1;jettySize=auto;html=1;entryX=0;entryY=0.5;entryDx=0;entryDy=0;" edge="1" parent="WIyWlLk6GJQsqaUBKTNV-1" source="Oh5g9ZbilyhvjwCsrJwf-45" target="Oh5g9ZbilyhvjwCsrJwf-50">
          <mxGeometry relative="1" as="geometry" />
        </mxCell>
        <mxCell id="Oh5g9ZbilyhvjwCsrJwf-45" value="i=0&lt;br&gt;sum=0" style="rounded=1;whiteSpace=wrap;html=1;" vertex="1" parent="WIyWlLk6GJQsqaUBKTNV-1">
          <mxGeometry x="580" y="3206" width="120" height="65.23" as="geometry" />
        </mxCell>
        <mxCell id="Oh5g9ZbilyhvjwCsrJwf-46" style="edgeStyle=orthogonalEdgeStyle;rounded=0;orthogonalLoop=1;jettySize=auto;html=1;entryX=0;entryY=0.5;entryDx=0;entryDy=0;" edge="1" parent="WIyWlLk6GJQsqaUBKTNV-1" source="Oh5g9ZbilyhvjwCsrJwf-50" target="Oh5g9ZbilyhvjwCsrJwf-56">
          <mxGeometry relative="1" as="geometry">
            <mxPoint x="1030" y="3236" as="targetPoint" />
          </mxGeometry>
        </mxCell>
        <mxCell id="Oh5g9ZbilyhvjwCsrJwf-47" value="true" style="edgeLabel;html=1;align=center;verticalAlign=middle;resizable=0;points=[];" vertex="1" connectable="0" parent="Oh5g9ZbilyhvjwCsrJwf-46">
          <mxGeometry x="-0.0407" y="-5" relative="1" as="geometry">
            <mxPoint as="offset" />
          </mxGeometry>
        </mxCell>
        <mxCell id="Oh5g9ZbilyhvjwCsrJwf-48" value="" style="edgeStyle=orthogonalEdgeStyle;rounded=0;orthogonalLoop=1;jettySize=auto;html=1;" edge="1" parent="WIyWlLk6GJQsqaUBKTNV-1" source="Oh5g9ZbilyhvjwCsrJwf-50" target="Oh5g9ZbilyhvjwCsrJwf-57">
          <mxGeometry relative="1" as="geometry" />
        </mxCell>
        <mxCell id="Oh5g9ZbilyhvjwCsrJwf-49" value="false" style="edgeLabel;html=1;align=center;verticalAlign=middle;resizable=0;points=[];" vertex="1" connectable="0" parent="Oh5g9ZbilyhvjwCsrJwf-48">
          <mxGeometry x="-0.0265" y="3" relative="1" as="geometry">
            <mxPoint as="offset" />
          </mxGeometry>
        </mxCell>
        <mxCell id="Oh5g9ZbilyhvjwCsrJwf-50" value="i&amp;lt;n" style="rhombus;whiteSpace=wrap;html=1;" vertex="1" parent="WIyWlLk6GJQsqaUBKTNV-1">
          <mxGeometry x="807" y="3190" width="120" height="90" as="geometry" />
        </mxCell>
        <mxCell id="Oh5g9ZbilyhvjwCsrJwf-59" style="edgeStyle=orthogonalEdgeStyle;rounded=0;orthogonalLoop=1;jettySize=auto;html=1;" edge="1" parent="WIyWlLk6GJQsqaUBKTNV-1" source="Oh5g9ZbilyhvjwCsrJwf-56">
          <mxGeometry relative="1" as="geometry">
            <mxPoint x="760" y="3230" as="targetPoint" />
            <Array as="points">
              <mxPoint x="1120" y="3105" />
              <mxPoint x="1110" y="3105" />
              <mxPoint x="1110" y="3010" />
            </Array>
          </mxGeometry>
        </mxCell>
        <mxCell id="Oh5g9ZbilyhvjwCsrJwf-56" value="sum*=i&lt;br&gt;i++" style="whiteSpace=wrap;html=1;" vertex="1" parent="WIyWlLk6GJQsqaUBKTNV-1">
          <mxGeometry x="1060" y="3200" width="120" height="60" as="geometry" />
        </mxCell>
        <mxCell id="Oh5g9ZbilyhvjwCsrJwf-60" style="edgeStyle=orthogonalEdgeStyle;rounded=0;orthogonalLoop=1;jettySize=auto;html=1;" edge="1" parent="WIyWlLk6GJQsqaUBKTNV-1" source="Oh5g9ZbilyhvjwCsrJwf-57">
          <mxGeometry relative="1" as="geometry">
            <mxPoint x="1410" y="2477.5" as="targetPoint" />
          </mxGeometry>
        </mxCell>
        <mxCell id="Oh5g9ZbilyhvjwCsrJwf-57" value="Giai thua cua n la sum" style="whiteSpace=wrap;html=1;" vertex="1" parent="WIyWlLk6GJQsqaUBKTNV-1">
          <mxGeometry x="927" y="3403" width="120" height="60" as="geometry" />
        </mxCell>
        <mxCell id="Oh5g9ZbilyhvjwCsrJwf-64" value="" style="edgeStyle=orthogonalEdgeStyle;rounded=0;orthogonalLoop=1;jettySize=auto;html=1;" edge="1" parent="WIyWlLk6GJQsqaUBKTNV-1" source="Oh5g9ZbilyhvjwCsrJwf-61" target="Oh5g9ZbilyhvjwCsrJwf-63">
          <mxGeometry relative="1" as="geometry" />
        </mxCell>
        <mxCell id="Oh5g9ZbilyhvjwCsrJwf-61" value="temp=0&lt;br&gt;i=0" style="shape=parallelogram;perimeter=parallelogramPerimeter;whiteSpace=wrap;html=1;fixedSize=1;" vertex="1" parent="WIyWlLk6GJQsqaUBKTNV-1">
          <mxGeometry x="575" y="3680" width="120" height="60" as="geometry" />
        </mxCell>
        <mxCell id="Oh5g9ZbilyhvjwCsrJwf-68" value="" style="edgeStyle=orthogonalEdgeStyle;rounded=0;orthogonalLoop=1;jettySize=auto;html=1;" edge="1" parent="WIyWlLk6GJQsqaUBKTNV-1" source="Oh5g9ZbilyhvjwCsrJwf-63" target="Oh5g9ZbilyhvjwCsrJwf-67">
          <mxGeometry relative="1" as="geometry" />
        </mxCell>
        <mxCell id="Oh5g9ZbilyhvjwCsrJwf-71" value="" style="edgeStyle=orthogonalEdgeStyle;rounded=0;orthogonalLoop=1;jettySize=auto;html=1;" edge="1" parent="WIyWlLk6GJQsqaUBKTNV-1" source="Oh5g9ZbilyhvjwCsrJwf-63" target="Oh5g9ZbilyhvjwCsrJwf-70">
          <mxGeometry relative="1" as="geometry" />
        </mxCell>
        <mxCell id="Oh5g9ZbilyhvjwCsrJwf-63" value="i&amp;lt;num" style="rhombus;whiteSpace=wrap;html=1;" vertex="1" parent="WIyWlLk6GJQsqaUBKTNV-1">
          <mxGeometry x="795" y="3670" width="80" height="80" as="geometry" />
        </mxCell>
        <mxCell id="Oh5g9ZbilyhvjwCsrJwf-69" style="edgeStyle=orthogonalEdgeStyle;rounded=0;orthogonalLoop=1;jettySize=auto;html=1;" edge="1" parent="WIyWlLk6GJQsqaUBKTNV-1" source="Oh5g9ZbilyhvjwCsrJwf-67">
          <mxGeometry relative="1" as="geometry">
            <mxPoint x="730" y="3710" as="targetPoint" />
            <Array as="points">
              <mxPoint x="1023" y="3601" />
              <mxPoint x="1024" y="3601" />
              <mxPoint x="1024" y="3540" />
            </Array>
          </mxGeometry>
        </mxCell>
        <mxCell id="Oh5g9ZbilyhvjwCsrJwf-67" value="temp= temp*10+n%10&lt;br&gt;n/=10&lt;br&gt;i++" style="whiteSpace=wrap;html=1;" vertex="1" parent="WIyWlLk6GJQsqaUBKTNV-1">
          <mxGeometry x="935" y="3680" width="175" height="60" as="geometry" />
        </mxCell>
        <mxCell id="Oh5g9ZbilyhvjwCsrJwf-72" style="edgeStyle=orthogonalEdgeStyle;rounded=0;orthogonalLoop=1;jettySize=auto;html=1;" edge="1" parent="WIyWlLk6GJQsqaUBKTNV-1" source="Oh5g9ZbilyhvjwCsrJwf-70">
          <mxGeometry relative="1" as="geometry">
            <mxPoint x="1410" y="3367.5" as="targetPoint" />
          </mxGeometry>
        </mxCell>
        <mxCell id="Oh5g9ZbilyhvjwCsrJwf-70" value="temp" style="rounded=1;whiteSpace=wrap;html=1;" vertex="1" parent="WIyWlLk6GJQsqaUBKTNV-1">
          <mxGeometry x="775" y="3840" width="120" height="60" as="geometry" />
        </mxCell>
        <mxCell id="Oh5g9ZbilyhvjwCsrJwf-78" value="" style="edgeStyle=orthogonalEdgeStyle;rounded=0;orthogonalLoop=1;jettySize=auto;html=1;" edge="1" parent="WIyWlLk6GJQsqaUBKTNV-1" source="Oh5g9ZbilyhvjwCsrJwf-75" target="Oh5g9ZbilyhvjwCsrJwf-77">
          <mxGeometry relative="1" as="geometry" />
        </mxCell>
        <mxCell id="Oh5g9ZbilyhvjwCsrJwf-75" value="count=0&lt;br&gt;i=2" style="shape=parallelogram;perimeter=parallelogramPerimeter;whiteSpace=wrap;html=1;fixedSize=1;" vertex="1" parent="WIyWlLk6GJQsqaUBKTNV-1">
          <mxGeometry x="524" y="4295" width="120" height="60" as="geometry" />
        </mxCell>
        <mxCell id="Oh5g9ZbilyhvjwCsrJwf-80" value="" style="edgeStyle=orthogonalEdgeStyle;rounded=0;orthogonalLoop=1;jettySize=auto;html=1;" edge="1" parent="WIyWlLk6GJQsqaUBKTNV-1" source="Oh5g9ZbilyhvjwCsrJwf-77" target="Oh5g9ZbilyhvjwCsrJwf-79">
          <mxGeometry relative="1" as="geometry" />
        </mxCell>
        <mxCell id="Oh5g9ZbilyhvjwCsrJwf-108" style="edgeStyle=orthogonalEdgeStyle;rounded=0;orthogonalLoop=1;jettySize=auto;html=1;" edge="1" parent="WIyWlLk6GJQsqaUBKTNV-1">
          <mxGeometry relative="1" as="geometry">
            <mxPoint x="1420" y="3154" as="targetPoint" />
            <mxPoint x="784.0000000000002" y="4328.999999999999" as="sourcePoint" />
            <Array as="points">
              <mxPoint x="784" y="4524" />
              <mxPoint x="1580" y="4524" />
              <mxPoint x="1580" y="3150" />
              <mxPoint x="1420" y="3150" />
            </Array>
          </mxGeometry>
        </mxCell>
        <mxCell id="Oh5g9ZbilyhvjwCsrJwf-109" value="false" style="edgeLabel;html=1;align=center;verticalAlign=middle;resizable=0;points=[];" vertex="1" connectable="0" parent="Oh5g9ZbilyhvjwCsrJwf-108">
          <mxGeometry x="-0.9165" y="3" relative="1" as="geometry">
            <mxPoint as="offset" />
          </mxGeometry>
        </mxCell>
        <mxCell id="Oh5g9ZbilyhvjwCsrJwf-77" value="i&amp;lt;n" style="rhombus;whiteSpace=wrap;html=1;" vertex="1" parent="WIyWlLk6GJQsqaUBKTNV-1">
          <mxGeometry x="744" y="4285" width="80" height="80" as="geometry" />
        </mxCell>
        <mxCell id="Oh5g9ZbilyhvjwCsrJwf-82" value="" style="edgeStyle=orthogonalEdgeStyle;rounded=0;orthogonalLoop=1;jettySize=auto;html=1;" edge="1" parent="WIyWlLk6GJQsqaUBKTNV-1" source="Oh5g9ZbilyhvjwCsrJwf-79" target="Oh5g9ZbilyhvjwCsrJwf-81">
          <mxGeometry relative="1" as="geometry" />
        </mxCell>
        <mxCell id="Oh5g9ZbilyhvjwCsrJwf-79" value="j=1" style="rounded=1;whiteSpace=wrap;html=1;" vertex="1" parent="WIyWlLk6GJQsqaUBKTNV-1">
          <mxGeometry x="884" y="4295" width="120" height="60" as="geometry" />
        </mxCell>
        <mxCell id="Oh5g9ZbilyhvjwCsrJwf-85" value="" style="edgeStyle=orthogonalEdgeStyle;rounded=0;orthogonalLoop=1;jettySize=auto;html=1;" edge="1" parent="WIyWlLk6GJQsqaUBKTNV-1" source="Oh5g9ZbilyhvjwCsrJwf-81" target="Oh5g9ZbilyhvjwCsrJwf-84">
          <mxGeometry relative="1" as="geometry" />
        </mxCell>
        <mxCell id="Oh5g9ZbilyhvjwCsrJwf-86" value="fasle" style="edgeLabel;html=1;align=center;verticalAlign=middle;resizable=0;points=[];" vertex="1" connectable="0" parent="Oh5g9ZbilyhvjwCsrJwf-85">
          <mxGeometry x="-0.0679" y="2" relative="1" as="geometry">
            <mxPoint as="offset" />
          </mxGeometry>
        </mxCell>
        <mxCell id="Oh5g9ZbilyhvjwCsrJwf-95" value="" style="edgeStyle=orthogonalEdgeStyle;rounded=0;orthogonalLoop=1;jettySize=auto;html=1;" edge="1" parent="WIyWlLk6GJQsqaUBKTNV-1" source="Oh5g9ZbilyhvjwCsrJwf-81" target="Oh5g9ZbilyhvjwCsrJwf-94">
          <mxGeometry relative="1" as="geometry" />
        </mxCell>
        <mxCell id="Oh5g9ZbilyhvjwCsrJwf-99" value="true" style="edgeLabel;html=1;align=center;verticalAlign=middle;resizable=0;points=[];" vertex="1" connectable="0" parent="Oh5g9ZbilyhvjwCsrJwf-95">
          <mxGeometry x="-0.0333" y="1" relative="1" as="geometry">
            <mxPoint as="offset" />
          </mxGeometry>
        </mxCell>
        <mxCell id="Oh5g9ZbilyhvjwCsrJwf-81" value="f&amp;lt;sqrt(i)" style="rhombus;whiteSpace=wrap;html=1;rounded=1;" vertex="1" parent="WIyWlLk6GJQsqaUBKTNV-1">
          <mxGeometry x="1104" y="4285" width="80" height="80" as="geometry" />
        </mxCell>
        <mxCell id="Oh5g9ZbilyhvjwCsrJwf-89" value="" style="edgeStyle=orthogonalEdgeStyle;rounded=0;orthogonalLoop=1;jettySize=auto;html=1;" edge="1" parent="WIyWlLk6GJQsqaUBKTNV-1" source="Oh5g9ZbilyhvjwCsrJwf-84" target="Oh5g9ZbilyhvjwCsrJwf-88">
          <mxGeometry relative="1" as="geometry" />
        </mxCell>
        <mxCell id="Oh5g9ZbilyhvjwCsrJwf-106" value="true" style="edgeLabel;html=1;align=center;verticalAlign=middle;resizable=0;points=[];" vertex="1" connectable="0" parent="Oh5g9ZbilyhvjwCsrJwf-89">
          <mxGeometry x="0.1952" y="-4" relative="1" as="geometry">
            <mxPoint as="offset" />
          </mxGeometry>
        </mxCell>
        <mxCell id="Oh5g9ZbilyhvjwCsrJwf-84" value="count==0" style="rhombus;whiteSpace=wrap;html=1;rounded=1;" vertex="1" parent="WIyWlLk6GJQsqaUBKTNV-1">
          <mxGeometry x="1264" y="4285" width="80" height="80" as="geometry" />
        </mxCell>
        <mxCell id="Oh5g9ZbilyhvjwCsrJwf-88" value="i la so nguyen to" style="whiteSpace=wrap;html=1;rounded=1;" vertex="1" parent="WIyWlLk6GJQsqaUBKTNV-1">
          <mxGeometry x="1404" y="4295" width="120" height="60" as="geometry" />
        </mxCell>
        <mxCell id="Oh5g9ZbilyhvjwCsrJwf-93" style="edgeStyle=orthogonalEdgeStyle;rounded=0;orthogonalLoop=1;jettySize=auto;html=1;" edge="1" parent="WIyWlLk6GJQsqaUBKTNV-1" source="Oh5g9ZbilyhvjwCsrJwf-90">
          <mxGeometry relative="1" as="geometry">
            <mxPoint x="700" y="4320" as="targetPoint" />
          </mxGeometry>
        </mxCell>
        <mxCell id="Oh5g9ZbilyhvjwCsrJwf-90" value="i++" style="rounded=1;whiteSpace=wrap;html=1;" vertex="1" parent="WIyWlLk6GJQsqaUBKTNV-1">
          <mxGeometry x="1320" y="3930" width="120" height="60" as="geometry" />
        </mxCell>
        <mxCell id="Oh5g9ZbilyhvjwCsrJwf-91" style="edgeStyle=orthogonalEdgeStyle;rounded=0;orthogonalLoop=1;jettySize=auto;html=1;entryX=0.165;entryY=1.052;entryDx=0;entryDy=0;entryPerimeter=0;" edge="1" parent="WIyWlLk6GJQsqaUBKTNV-1" source="Oh5g9ZbilyhvjwCsrJwf-84" target="Oh5g9ZbilyhvjwCsrJwf-90">
          <mxGeometry relative="1" as="geometry" />
        </mxCell>
        <mxCell id="Oh5g9ZbilyhvjwCsrJwf-107" value="false" style="edgeLabel;html=1;align=center;verticalAlign=middle;resizable=0;points=[];" vertex="1" connectable="0" parent="Oh5g9ZbilyhvjwCsrJwf-91">
          <mxGeometry x="-0.1953" y="4" relative="1" as="geometry">
            <mxPoint as="offset" />
          </mxGeometry>
        </mxCell>
        <mxCell id="Oh5g9ZbilyhvjwCsrJwf-92" style="edgeStyle=orthogonalEdgeStyle;rounded=0;orthogonalLoop=1;jettySize=auto;html=1;entryX=0.892;entryY=1.052;entryDx=0;entryDy=0;entryPerimeter=0;" edge="1" parent="WIyWlLk6GJQsqaUBKTNV-1" source="Oh5g9ZbilyhvjwCsrJwf-88" target="Oh5g9ZbilyhvjwCsrJwf-90">
          <mxGeometry relative="1" as="geometry" />
        </mxCell>
        <mxCell id="Oh5g9ZbilyhvjwCsrJwf-97" value="" style="edgeStyle=orthogonalEdgeStyle;rounded=0;orthogonalLoop=1;jettySize=auto;html=1;" edge="1" parent="WIyWlLk6GJQsqaUBKTNV-1" source="Oh5g9ZbilyhvjwCsrJwf-94" target="Oh5g9ZbilyhvjwCsrJwf-96">
          <mxGeometry relative="1" as="geometry" />
        </mxCell>
        <mxCell id="Oh5g9ZbilyhvjwCsrJwf-104" value="true" style="edgeLabel;html=1;align=center;verticalAlign=middle;resizable=0;points=[];" vertex="1" connectable="0" parent="Oh5g9ZbilyhvjwCsrJwf-97">
          <mxGeometry x="-0.2282" y="-4" relative="1" as="geometry">
            <mxPoint as="offset" />
          </mxGeometry>
        </mxCell>
        <mxCell id="Oh5g9ZbilyhvjwCsrJwf-101" style="edgeStyle=orthogonalEdgeStyle;rounded=0;orthogonalLoop=1;jettySize=auto;html=1;entryX=1;entryY=0.5;entryDx=0;entryDy=0;" edge="1" parent="WIyWlLk6GJQsqaUBKTNV-1" source="Oh5g9ZbilyhvjwCsrJwf-94" target="Oh5g9ZbilyhvjwCsrJwf-100">
          <mxGeometry relative="1" as="geometry" />
        </mxCell>
        <mxCell id="Oh5g9ZbilyhvjwCsrJwf-105" value="false" style="edgeLabel;html=1;align=center;verticalAlign=middle;resizable=0;points=[];" vertex="1" connectable="0" parent="Oh5g9ZbilyhvjwCsrJwf-101">
          <mxGeometry x="-0.3003" y="-1" relative="1" as="geometry">
            <mxPoint as="offset" />
          </mxGeometry>
        </mxCell>
        <mxCell id="Oh5g9ZbilyhvjwCsrJwf-94" value="&lt;div style=&quot;color: rgb(212, 212, 212); background-color: rgb(30, 30, 30); font-family: Consolas, &amp;quot;Courier New&amp;quot;, monospace; font-size: 14px; line-height: 19px;&quot;&gt;i % &lt;span style=&quot;color: #c8c8c8;&quot;&gt;f&lt;/span&gt; == &lt;span style=&quot;color: #b5cea8;&quot;&gt;0&lt;/span&gt; &amp;amp;&amp;amp; &lt;span style=&quot;color: #c8c8c8;&quot;&gt;f&lt;/span&gt;!=&lt;span style=&quot;color: #b5cea8;&quot;&gt;1&lt;/span&gt;&lt;/div&gt;" style="rhombus;whiteSpace=wrap;html=1;rounded=1;" vertex="1" parent="WIyWlLk6GJQsqaUBKTNV-1">
          <mxGeometry x="1091" y="4120" width="106" height="105" as="geometry" />
        </mxCell>
        <mxCell id="Oh5g9ZbilyhvjwCsrJwf-102" style="edgeStyle=orthogonalEdgeStyle;rounded=0;orthogonalLoop=1;jettySize=auto;html=1;entryX=0.5;entryY=0;entryDx=0;entryDy=0;" edge="1" parent="WIyWlLk6GJQsqaUBKTNV-1" source="Oh5g9ZbilyhvjwCsrJwf-96" target="Oh5g9ZbilyhvjwCsrJwf-100">
          <mxGeometry relative="1" as="geometry" />
        </mxCell>
        <mxCell id="Oh5g9ZbilyhvjwCsrJwf-96" value="count++" style="whiteSpace=wrap;html=1;rounded=1;" vertex="1" parent="WIyWlLk6GJQsqaUBKTNV-1">
          <mxGeometry x="1091" y="3990" width="120" height="60" as="geometry" />
        </mxCell>
        <mxCell id="Oh5g9ZbilyhvjwCsrJwf-103" style="edgeStyle=orthogonalEdgeStyle;rounded=0;orthogonalLoop=1;jettySize=auto;html=1;" edge="1" parent="WIyWlLk6GJQsqaUBKTNV-1" source="Oh5g9ZbilyhvjwCsrJwf-100">
          <mxGeometry relative="1" as="geometry">
            <mxPoint x="850" y="4330" as="targetPoint" />
          </mxGeometry>
        </mxCell>
        <mxCell id="Oh5g9ZbilyhvjwCsrJwf-100" value="i++" style="rounded=1;whiteSpace=wrap;html=1;" vertex="1" parent="WIyWlLk6GJQsqaUBKTNV-1">
          <mxGeometry x="884" y="4120" width="120" height="60" as="geometry" />
        </mxCell>
        <mxCell id="Oh5g9ZbilyhvjwCsrJwf-110" value="end" style="ellipse;whiteSpace=wrap;html=1;" vertex="1" parent="WIyWlLk6GJQsqaUBKTNV-1">
          <mxGeometry x="595" y="4580" width="120" height="80" as="geometry" />
        </mxCell>
      </root>
    </mxGraphModel>
  </diagram>
</mxfile>
